<svg width="110" height="70" viewBox="0 0 110 70" fill="none" xmlns="http://www.w3.org/2000/svg">
<g clip-path="url(#clip0_48_1024)">
<path d="M18.7118 62.3397L105.197 60.9414L71.6836 49.413L75.4611 39.4217L96.8959 35.7436L91.4054 34.1516L76.647 33.3281L18.7118 62.3397Z" fill="#172B4D"/>
<path d="M66.5444 11.3142L63.909 11.3691L41.991 1.1582L66.764 18.7253L70.805 14.5531L66.5444 11.3142Z" fill="#36B37E"/>
<path d="M66.5446 11.3137L109.195 1.54199L87.8916 27.3986L66.5446 11.3137Z" fill="#172B4D"/>
<path d="M41.991 1.1582L84.5532 31.4065L74.9778 33.6024L51.5225 35.7434L41.991 1.1582Z" fill="white" stroke="#36B37E" stroke-width="0.633632" stroke-miterlimit="10" stroke-linejoin="round"/>
<path d="M84.5533 31.406L109.195 1.54199L91.4054 34.1509L84.5533 31.406Z" fill="white" stroke="#36B37E" stroke-width="0.633632" stroke-miterlimit="10" stroke-linejoin="round"/>
<path d="M66.7643 18.725L77.7891 7.36133L78.9312 8.51417L75.4612 24.9284L66.7643 18.725Z" fill="white" stroke="#36B37E" stroke-width="0.633632" stroke-miterlimit="10" stroke-linejoin="round"/>
<path d="M78.931 8.51367L88.9017 26.1906L84.5533 31.4058L75.461 24.9279L78.931 8.51367Z" fill="white" stroke="#36B37E" stroke-width="0.633632" stroke-miterlimit="10" stroke-linejoin="round"/>
<path d="M91.4055 34.1511L74.978 33.6021L84.5534 31.4062L91.4055 34.1511Z" fill="white" stroke="#36B37E" stroke-width="0.633632" stroke-miterlimit="10" stroke-linejoin="round"/>
<path d="M34.6558 25.6968L31.1419 26.4653L0.219523 18.6699L36.237 35.4684L40.9369 28.8259L34.6558 25.6968Z" fill="white" stroke="#36B37E" stroke-width="0.633632" stroke-miterlimit="10" stroke-linejoin="round"/>
<path d="M34.6558 25.6967L89.8241 1.54199L65.7978 41.3424L34.6558 25.6967Z" fill="#C5E9DA" stroke="#36B37E" stroke-width="0.633632" stroke-miterlimit="10"/>
<path d="M0.219523 18.6699L62.1081 47.4909L49.6777 52.9806L18.7554 61.9289L0.219523 18.6699Z" fill="white" stroke="#36B37E" stroke-width="0.633632" stroke-miterlimit="10" stroke-linejoin="round"/>
<path d="M62.1081 47.4909L89.824 1.54199L71.6835 49.4123L62.1081 47.4909Z" fill="white" stroke="#36B37E" stroke-width="0.633632" stroke-miterlimit="10" stroke-linejoin="round"/>
<path d="M36.237 35.4689L49.0188 17.5176L50.7318 18.6704L48.887 41.3429L36.237 35.4689Z" fill="#36B37E"/>
<path d="M50.7318 18.6699L66.9397 39.4759L62.1081 47.4909L48.887 41.3424L50.7318 18.6699Z" fill="white" stroke="#36B37E" stroke-width="0.633632" stroke-miterlimit="10" stroke-linejoin="round"/>
<path d="M71.6835 49.4126L49.6777 52.9809L62.1081 47.4912L71.6835 49.4126Z" fill="white" stroke="#36B37E" stroke-width="0.633632" stroke-miterlimit="10" stroke-linejoin="round"/>
<mask id="mask0_48_1024" style="mask-type:alpha" maskUnits="userSpaceOnUse" x="-1" y="18" width="64" height="44">
<path d="M0.142895 18.875L61.9919 47.3762L49.7439 52.6513L18.8216 61.5996L0.142895 18.875Z" fill="white" stroke="#36B37E" stroke-width="0.633632" stroke-miterlimit="10" stroke-linejoin="round"/>
</mask>
<g mask="url(#mask0_48_1024)">
<path d="M37.3791 48.6439L30.6587 48.9184L27.5401 42.166L21.0833 42.4954L24.1141 49.1929L17.7451 49.4124L20.688 56.1648L27.1888 56.0001L33.8212 55.7805L37.0716 62.8622L44.0116 62.7524L47.4376 69.9989H54.6411L51.1272 62.6427L47.6572 55.4511L40.6294 55.6158L37.3791 48.6439Z" fill="#C5E9DA"/>
<path d="M34.1288 41.7814L30.9663 35.084L24.4656 35.5232L27.5403 42.1657L34.1288 41.7814Z" fill="#C5E9DA"/>
<path d="M44.2313 48.3694L40.937 41.3975L34.1288 41.7817L37.3792 48.6439L44.2313 48.3694Z" fill="#36B37E"/>
<path d="M47.8769 41.0684L44.4948 34.1514L37.6427 34.6454L40.937 41.3978L47.8769 41.0684Z" fill="#172B4D"/>
<path d="M51.303 48.0398L44.2313 48.3692L47.6574 55.4509L54.817 55.2313L62.1961 55.0118L58.5505 47.7653L54.9926 40.6836L47.877 41.0679L51.303 48.0398Z" fill="#36B37E"/>
<path d="M14.8023 42.8253L21.0834 42.4959L18.1405 35.9631L24.4655 35.524L21.4787 28.9912L15.2415 29.4853L9.1361 29.9794L11.9472 36.3474L5.92966 36.7866L-5.24521e-05 37.1709L2.6793 43.4841L8.69686 43.1547L11.508 49.6874L17.7452 49.413L14.8023 42.8253Z" fill="#36B37E"/>
<path d="M5.40252 49.962L8.21364 56.4947L14.363 56.3301L11.5079 49.6875L5.40252 49.962Z" fill="#36B37E"/>
<path d="M0.526987 24.3244L3.20634 30.4728L9.13605 29.9788L6.41278 23.7754L0.526987 24.3244Z" fill="#36B37E"/>
<path d="M30.9662 35.0842L37.6426 34.645L34.4362 28.0025L31.3176 21.4697L24.8608 22.0736L18.5358 22.6226L21.4787 28.9906L27.8916 28.4966L30.9662 35.0842Z" fill="#36B37E"/>
<path d="M48.0966 26.9043L41.2005 27.4533L44.4948 34.1507L51.5226 33.7115L48.0966 26.9043Z" fill="#36B37E"/>
<path d="M62.3279 40.2446L58.6822 33.2178L51.5226 33.7118L54.9926 40.6838L62.3279 40.2446Z" fill="#36B37E"/>
<path d="M14.3631 56.3297L17.306 63.137L23.7189 63.0272L20.6881 56.165L14.3631 56.3297Z" fill="#36B37E"/>
</g>
</g>
<defs>
<clipPath id="clip0_48_1024">
<rect width="109.414" height="69.1155" fill="white" transform="translate(0 0.884766)"/>
</clipPath>
</defs>
</svg>
