<svg width="18" height="20" viewBox="0 0 18 20" fill="none" xmlns="http://www.w3.org/2000/svg">
<path d="M17.9991 7.46114C17.9991 6.32124 17.6331 5.25043 16.9344 4.31779C17.2006 3.41969 17.2671 2.27979 17.2006 0.967185C17.1673 0.414508 16.7348 0 16.2024 0C15.903 0 13.3743 0.0345423 11.9104 1.38169C10.6461 1.1399 9.3152 1.1399 8.0176 1.38169C6.58692 0.0345423 4.05826 0 3.72555 0C3.1932 0 2.76067 0.414508 2.7274 0.967185C2.62758 2.27979 2.7274 3.41969 2.99357 4.31779C2.29486 5.28497 1.92887 6.35579 1.92887 7.46114C1.92887 9.8791 3.72555 12.0553 6.45383 13.0915C6.35401 13.2988 6.28747 13.5406 6.22093 13.7824C3.32629 13.4715 1.96215 10.7427 1.8956 10.639C1.6627 10.1209 1.06381 9.91364 0.564734 10.19C0.0656586 10.4318 -0.133972 11.0535 0.132202 11.5717C0.198745 11.7444 2.02869 15.4404 6.05457 15.8549V18.9637C6.05457 19.5509 6.4871 20 7.05272 20H12.8753C13.4409 20 13.8734 19.5509 13.8734 18.9637V14.8532C13.8734 14.2314 13.7403 13.6442 13.5074 13.1261C16.2024 12.0553 17.9991 9.91364 17.9991 7.46114Z" fill="white"/>
</svg>
