<svg width="122" height="109" viewBox="0 0 122 109" fill="none" xmlns="http://www.w3.org/2000/svg">
<g id="illustration 1- about me-mobile">
<path id="Vector" d="M73.2631 93.9785L117.268 108.943H54.1303L46.0357 108.06L42.111 105.607L55.504 93.9785H73.2631Z" fill="#172B4D"/>
<path id="Vector_2" d="M67.474 66.5024V64.1472C67.474 64.1472 62.3229 53.9417 61.587 53.8435C60.8511 53.7454 0.999978 28.8203 0.999978 28.8203L23.8121 73.2243L32.8388 82.8411L67.474 66.5024Z" fill="white" stroke="#36B37E" stroke-width="0.598795" stroke-miterlimit="10"/>
<g id="Mask Group">
<mask id="mask0_73_259" style="mask-type:alpha" maskUnits="userSpaceOnUse" x="0" y="28" width="68" height="56">
<path id="Vector_3" d="M67.657 66.769V64.4138C67.657 64.4138 62.5059 54.2083 61.77 54.1102C61.0342 54.012 1.18302 29.0869 1.18302 29.0869L23.9951 73.4909L33.0219 83.1077L67.657 66.769Z" fill="white" stroke="#36B37E" stroke-width="0.598795" stroke-miterlimit="10"/>
</mask>
<g mask="url(#mask0_73_259)">
<g id="Group">
<g id="Group_2">
<path id="Vector_4" d="M42.5032 54.9725L34.9973 55.2179L31.5632 49.1338L24.3517 49.4772L27.7367 55.4141L20.5742 55.6595L23.9101 61.6945L31.1217 61.5473L38.5786 61.351L42.2089 67.6314L49.911 67.5823L53.7376 74.0589H61.8322L57.8585 67.4842L53.9829 61.0076L46.1826 61.2038L42.5032 54.9725Z" fill="#C5E9DA"/>
<path id="Vector_5" d="M38.9218 48.8385L35.3897 42.8525L28.129 43.2451L31.5631 49.1329L38.9218 48.8385Z" fill="#36B37E"/>
<path id="Vector_6" d="M50.2055 54.6783L46.4771 48.4961L38.9221 48.8395L42.5034 54.9727L50.2055 54.6783Z" fill="#36B37E"/>
<path id="Vector_7" d="M54.228 48.1517L50.4505 42.0186L42.8465 42.4111L46.4768 48.4951L54.228 48.1517Z" fill="#36B37E"/>
<path id="Vector_8" d="M58.1037 54.4324L50.2053 54.6777L53.9828 61.0071L62.0284 60.8599L70.2702 60.6637L66.1983 54.1871L62.2246 47.8086L54.2281 48.1521L58.1037 54.4324Z" fill="#36B37E"/>
<path id="Vector_9" d="M17.3363 49.7716L24.3516 49.4773L21.0647 43.5894L28.1291 43.246L24.7931 37.4072L17.8269 37.8488L11.0078 38.2904L14.1475 43.982L7.37744 44.3254L0.803626 44.6689L3.79618 50.3604L10.4681 50.066L13.6078 55.9048L20.5741 55.6595L17.3363 49.7716Z" fill="#172B4D"/>
<path id="Vector_10" d="M6.83774 56.1006L9.92841 61.9884L16.8456 61.8412L13.6078 55.9043L6.83774 56.1006Z" fill="#36B37E"/>
<path id="Vector_11" d="M1.39232 33.1869L4.33582 38.7313L11.0078 38.2897L7.91708 32.6963L1.39232 33.1869Z" fill="#36B37E"/>
<path id="Vector_12" d="M35.3897 42.853L42.8466 42.4114L39.2653 36.4745L35.7822 30.6357L28.5706 31.1755L21.5062 31.7152L24.7931 37.4067L31.9556 36.9651L35.3897 42.853Z" fill="#36B37E"/>
<path id="Vector_13" d="M54.4735 35.4932L46.7713 35.9838L50.4507 42.0188L58.3 41.6263L54.4735 35.4932Z" fill="#36B37E"/>
<path id="Vector_14" d="M70.3683 47.4649L66.3456 41.1846L58.3 41.6262L62.2247 47.8084L70.3683 47.4649Z" fill="#36B37E"/>
<path id="Vector_15" d="M16.8457 61.8406L20.1326 67.9246L27.2952 67.8265L23.9101 61.6934L16.8457 61.8406Z" fill="#36B37E"/>
</g>
</g>
</g>
</g>
<path id="Vector_16" d="M54.1303 64.9316L26.6577 70.8195L25.9708 72.6349L32.1031 81.025L54.1303 64.9316Z" fill="#172B4D"/>
<path id="Vector_17" d="M69.8289 66.7964L96.811 1L79.4443 71.801L77.5801 72.4389L69.8289 66.7964Z" fill="white" stroke="#36B37E" stroke-width="0.598795" stroke-miterlimit="10"/>
<path id="Vector_18" d="M79.5916 71.1635L71.5461 62.5771L69.829 66.7968L77.5803 72.4392L79.4445 71.8014L79.5916 71.1635Z" fill="#36B37E"/>
<path id="Vector_19" d="M77.5801 72.439L72.0365 67.7288L63.4513 61.2031L41.7184 69.9367L40.7373 75.1867L46.0356 82.6937L77.5801 72.439Z" fill="white" stroke="#36B37E" stroke-width="0.598795" stroke-miterlimit="10"/>
<path id="Vector_20" d="M66.4439 76.0202L82.486 70.8193L73.2631 93.9781L60.0173 94.8122L66.4439 76.0202Z" fill="white" stroke="#36B37E" stroke-width="0.598795" stroke-miterlimit="10"/>
<path id="Vector_21" d="M49.2244 81.5649L46.0356 82.6934L44.5639 103.644L46.0356 108.06L60.0172 94.8125L66.4439 76.0205L49.2244 81.5649Z" fill="white" stroke="#36B37E" stroke-width="0.598795" stroke-miterlimit="10"/>
<path id="Vector_22" d="M92.1505 67.7285L119.868 82.6934L49.2244 81.5649L92.1505 67.7285Z" fill="#C5E9DA" stroke="#36B37E" stroke-width="0.598795" stroke-miterlimit="10"/>
<path id="Vector_23" d="M46.0356 82.6936V79.259L23.8122 48.6914L20.8687 53.3526L42.1109 105.607L44.5638 103.644L46.0356 82.6936Z" fill="white" stroke="#36B37E" stroke-width="0.598795" stroke-miterlimit="10"/>
<path id="Vector_24" d="M23.8121 48.6911L20.8686 53.3523L10.9588 62.5766L18.8082 46.7285L23.8121 48.6911Z" fill="white" stroke="#36B37E" stroke-width="0.598795" stroke-miterlimit="10"/>
<path id="Vector_25" d="M76.7952 85.0491L49.2245 81.5654L78.0217 82.0561L76.7952 85.0491Z" fill="#172B4D"/>
<path id="Vector_26" d="M52.2169 80.6324L42.6015 72.6348L42.209 74.0086L46.0356 79.2586V82.6931L52.2169 80.6324Z" fill="#172B4D"/>
<path id="Vector_27" d="M40.0506 100.602L37.7939 103.399L34.8504 100.602L19.4952 54.6773L20.8688 53.3525L40.0506 100.602Z" fill="#C5E9DA" stroke="#36B37E" stroke-width="0.598795" stroke-miterlimit="10"/>
</g>
</svg>
