<svg width="89" height="16" viewBox="0 0 89 16" fill="none" xmlns="http://www.w3.org/2000/svg">
<path d="M4.69105 15H7.29048L10.2095 4.79403H10.3232L13.2351 15H15.8345L19.9396 0.454545H17.1058L14.4851 11.1506H14.3572L11.5518 0.454545H8.97372L6.17543 11.1435H6.04048L3.41974 0.454545H0.585938L4.69105 15ZM25.3693 15.2131C27.9119 15.2131 29.6591 13.9702 30.1136 12.0739L27.7131 11.804C27.3651 12.7273 26.5128 13.2102 25.4048 13.2102C23.7429 13.2102 22.642 12.1165 22.6207 10.2486H30.2202V9.46023C30.2202 5.6321 27.919 3.94886 25.2344 3.94886C22.1094 3.94886 20.071 6.2429 20.071 9.60938C20.071 13.0327 22.081 15.2131 25.3693 15.2131ZM22.6278 8.51562C22.706 7.12358 23.7358 5.9517 25.2699 5.9517C26.7472 5.9517 27.7415 7.03125 27.7557 8.51562H22.6278ZM34.9663 0.454545H32.3952V15H34.9663V0.454545ZM42.3686 15.2131C45.1101 15.2131 46.8572 13.5866 47.0419 11.2713H44.5845C44.3643 12.4432 43.5192 13.1179 42.3899 13.1179C40.7848 13.1179 39.7479 11.7756 39.7479 9.54545C39.7479 7.34375 40.8061 6.02273 42.3899 6.02273C43.6257 6.02273 44.3857 6.81818 44.5845 7.86932H47.0419C46.8643 5.50426 45.0178 3.94886 42.3544 3.94886C39.1584 3.94886 37.1413 6.2571 37.1413 9.58807C37.1413 12.8906 39.1087 15.2131 42.3686 15.2131ZM53.9116 15.2131C57.1076 15.2131 59.1388 12.9616 59.1388 9.58807C59.1388 6.20739 57.1076 3.94886 53.9116 3.94886C50.7156 3.94886 48.6843 6.20739 48.6843 9.58807C48.6843 12.9616 50.7156 15.2131 53.9116 15.2131ZM53.9258 13.1534C52.1573 13.1534 51.2908 11.5767 51.2908 9.58097C51.2908 7.58523 52.1573 5.98722 53.9258 5.98722C55.6658 5.98722 56.5323 7.58523 56.5323 9.58097C56.5323 11.5767 55.6658 13.1534 53.9258 13.1534ZM61.321 15H63.892V8.36648C63.892 7.02415 64.7869 6.11506 65.8949 6.11506C66.9815 6.11506 67.7273 6.84659 67.7273 7.96875V15H70.2486V8.19602C70.2486 6.96733 70.9801 6.11506 72.223 6.11506C73.2599 6.11506 74.0838 6.72585 74.0838 8.07528V15H76.6619V7.67756C76.6619 5.24148 75.2557 3.94886 73.2528 3.94886C71.669 3.94886 70.4616 4.73011 69.9787 5.9446H69.8651C69.446 4.70881 68.3878 3.94886 66.9176 3.94886C65.4545 3.94886 64.3608 4.7017 63.9062 5.9446H63.7784V4.09091H61.321V15ZM84.0998 15.2131C86.6424 15.2131 88.3896 13.9702 88.8441 12.0739L86.4435 11.804C86.0955 12.7273 85.2433 13.2102 84.1353 13.2102C82.4734 13.2102 81.3725 12.1165 81.3512 10.2486H88.9506V9.46023C88.9506 5.6321 86.6495 3.94886 83.9648 3.94886C80.8398 3.94886 78.8015 6.2429 78.8015 9.60938C78.8015 13.0327 80.8114 15.2131 84.0998 15.2131ZM81.3583 8.51562C81.4364 7.12358 82.4663 5.9517 84.0004 5.9517C85.4776 5.9517 86.4719 7.03125 86.4862 8.51562H81.3583Z" fill="#28352F"/>
</svg>
